#File written by LIBUNFOLD3D. Compilation :Dec 22 2011,11:53:02
mtllib p_infusor2.mtl
#begin vertices
v -0.23313 0.041406999999999999 -0.94072
v 0.23313 0.041406999999999999 -0.94072
v -0.23313 -0.23256099999999999 -0.94072
v 0.23313 -0.23256099999999999 -0.94072
v 0.23313 -0.23256099999999999 -0.17494699999999999
v -0.23313 -0.23256099999999999 -0.17494699999999999
v -0.146422 -0.38735399999999998 -0.94072
v 0.146422 -0.38735399999999998 -0.94072
v 0.146422 -0.38735399999999998 -0.17494699999999999
v -0.146422 -0.38735399999999998 -0.17494699999999999
v 0 -0.23256099999999999 -0.17494699999999999
v 0 -0.38735399999999998 -0.17494699999999999
v 0 -0.38735399999999998 -0.94072
v 0 0.041423000000000001 -0.94072
v 0.23313 0.041406999999999999 -0.17494699999999999
v -0.23313 0.041406999999999999 -0.17494699999999999
v -0 0.041406999999999999 -0.17494699999999999
v 0.23313 -0.23229 -2
v 0.146422 -0.38735399999999998 -2
v 0 -0.38735399999999998 -2
v 0 0.041423000000000001 -2
v 0.23305400000000001 0.041415 -2
v -0.146422 -0.38735399999999998 -2
v -0.233129 -0.23229 -2
v -0.23305400000000001 0.041415 -2
v 0.23313 -0.23229 -0.96531500000000003
v 0.146422 -0.38735399999999998 -0.96531500000000003
v 0 -0.38735399999999998 -0.96531500000000003
v -0.146422 -0.38735399999999998 -0.96531500000000003
v -0.23313 -0.23229 -0.96531500000000003
v -0.23305300000000001 0.041415 -0.96531500000000003
v 0 0.041423000000000001 -0.96531500000000003
v 0.23305300000000001 0.041415 -0.96531500000000003
v -0.18848200000000001 0.17836399999999999 -0.96531500000000003
v -0 0.22045600000000001 -0.96531500000000003
v 0.18848200000000001 0.17836399999999999 -0.96531500000000003
v -0.18848200000000001 0.17836399999999999 -2
v -0 0.22045600000000001 -2
v 0.18848200000000001 0.17836399999999999 -2
v 0.21423200000000001 -0.221749 -2
v 0.140567 -0.35325800000000002 -2
v 0.01617 -0.35325800000000002 -2
v 0.01617 0.011022000000000001 -2
v 0.214167 0.011015 -2
v -0.01617 0.011022000000000001 -2
v -0.01617 -0.35325800000000002 -2
v -0.140567 -0.35325800000000002 -2
v -0.21423200000000001 -0.221749 -2
v -0.214167 0.011015 -2
v 0.21423200000000001 -0.221749 -1.9456439999999999
v 0.140567 -0.35325800000000002 -1.9456439999999999
v 0.01617 -0.35325800000000002 -1.9456439999999999
v 0.01617 0.011022000000000001 -1.9456450000000001
v 0.214167 0.011015 -1.9456450000000001
v -0.01617 0.011022000000000001 -1.9456450000000001
v -0.01617 -0.35325800000000002 -1.9456439999999999
v -0.140567 -0.35325800000000002 -1.9456450000000001
v -0.21423200000000001 -0.221749 -1.9456439999999999
v -0.214167 0.011015 -1.9456450000000001
v 0.29658899999999999 -0.23229 -1.0323290000000001
v 0.18628 -0.44317800000000002 -1.0323290000000001
v 0.186279 -0.44317800000000002 -1.9329860000000001
v 0.29658899999999999 -0.23229 -1.9329860000000001
v -0 -0.44317800000000002 -1.0323290000000001
v -0 -0.44317800000000002 -1.9329860000000001
v -0.18628 -0.44317800000000002 -1.0323290000000001
v -0.186279 -0.44317800000000002 -1.932987
v -0.29658899999999999 -0.23229 -1.0323290000000001
v -0.29658899999999999 -0.23229 -1.9329860000000001
#end vertices

#begin 196 textures vertices 
vt 0.79162733845069422 0.32522973612264794 0
vt 0.20837266157119028 0.24049979460560972 0
vt 0.7513070746992353 0.25497211653253149 0
vt 0.24869292532714246 0.17024217500766353 0
vt 0.052340020500378531 0.057494402048095909 0
vt 0.94765997950411707 0.14222434358552896 0
vt 0.72517463114099068 0.20948268931999839 0
vt 0.5705465578502259 0.61623588393388218 0
vt 0.47411586784457854 0.82110407432281995 0
vt 0.92153482626053895 0.096729941542503139 0
vt 0.91888827410017182 0.47632357928779856 0
vt 0.43494341034064088 0.80266574572157801 0
vt 0.53137410050511769 0.59779755463677564 0
vt 0.055444450677105205 0.58110376076332271 0
vt 0.012000000000000011 0.12774921248662807 0
vt 0.98799999999999988 0.21247915401623166 0
vt 0.91888827409579721 0.55733212359576656 0
vt 0.52032219054536355 0.32618752682153246 0
vt 0.12878005839037571 0.81046498779844367 0
vt 0.16345071231940003 0.83639564824064694 0
vt 0.925422918020255 0.77711170548608932 0
vt 0.48004465776787453 0.39638374394827347 0
vt 0.81528882362090682 0.78525060467376073 0
vt 0.47967780951128564 0.41091746832902132 0
vt 0.51995534228428597 0.48111368544793937 0
vt 0.2549612295294148 0.1739283164582569 0
vt 0.28113098375229101 0.12837651021117893 0
vt 0.53447124912317812 0.5912176240891337 0
vt 0.174670542438708 0.62897374415167218 0
vt 0.74503877049766154 0.25865825798271408 0
vt 0.78531949530842848 0.32885202991570073 0
vt 0.69038514880187563 0.56047920543662644 0
vt 0.21468050471415884 0.24412208839906613 0
vt 0.18333578228350619 0.25054561130983366 0
vt 0.23476330385203328 0.27536728621310652 0
vt 0.25863217249497666 0.32421237472264919 0
vt 0.050351253474915696 0.52607354080041802 0
vt 0.10177877503985792 0.55089521579583112 0
vt 0.39161670130356718 0.59974030421323354 0
vt 0.083395730449420447 0.83766906614256276 0
vt 0.12412819514757444 0.81957533073380118 0
vt 0.15358364130191629 0.84160546532435621 0
vt 0.089071334501901342 0.927861805311746 0
vt 0.042189691363835935 0.89279579289303979 0
vt 0.85499738334847541 0.90264693685772934 0
vt 0.79048534324890329 0.81639095346282864 0
vt 0.81994066763226703 0.79436090994611863 0
vt 0.86067296393743153 0.8124545705545102 0
vt 0.90187883267305624 0.86758106940548774 0
vt 0.68825585479197293 0.70589934223054474 0
vt 0.67406011275981037 0.74814857712997096 0
vt 0.63791517356440641 0.75496719200997542 0
vt 0.61794777058418737 0.64912156510462282 0
vt 0.67547839637235951 0.63827072243277461 0
vt 0.16771011898857621 0.65845381426553717 0
vt 0.14774271600822386 0.76429944117159565 0
vt 0.1115977768125789 0.75748082629154589 0
vt 0.097402034780321708 0.7152315913918379 0
vt 0.11017949320002025 0.64760297159361657 0
vt 0.59354718921838123 0.51346470203460759 0
vt 0.6057505521667399 0.44415893241427473 0
vt 0.86802757394641861 0.49034054273246575 0
vt 0.85582418723200404 0.55964644732507773 0
vt 0.29667344926773903 0.77321226786568087 0
vt 0.46483632736964481 0.56670991021910244 0
vt 0.85931221018171289 0.7920106630265078 0
vt 0.69114951468160601 0.58550806134846622 0
vt 0.9859637934033304 0.40654248135418714 0
vt 0.72368672258821209 0.45272423946354773 0
vt 0.91888827410264351 0.43055343241275007 0
vt 0.98782158723397173 0.56953241428239221 0
vt 0.31337083833628188 0.82198353662636081 0
vt 0.98782158724081803 0.47632357929152103 0
vt 0.74062629637570021 0.94348120128367663 0
vt 0.61780236455795734 0.85644649200462719 0
vt 0.21694014817180499 0.61711534554155834 0
vt 0.078465173746867983 0.012000000000000011 0
vt 0.96218323218045276 0.43055343241508803 0
vt 0.27482536888829945 0.12475274779006086 0
vt 0.98782158723644342 0.61530256115744075 0
vt 0.2741983808323441 0.84042186522760287 0
vt 0.94452662915616237 0.56953241428473023 0
vt 0.91888827409579721 0.61530256116116322 0
vt 0.17776769082669669 0.63555367483866509 0
vt 0.019372336603214607 0.72310346469297004 0
vt 0.30055444549755039 0.86825171539232204 0
vt 0.26786982471831128 0.85137967630871803 0
vt 0.058977215655201608 0.7435477914539067 0
vt 0.17215714250330744 0.80197242603134744 0
vt 0.12013453050727473 0.77511797516416936 0
vt 0.23160523229225582 0.95926194158197609 0
vt 0.512787008701863 0.81411386251366036 0
vt 0.47318217648079819 0.83455816510013436 0
vt 0.26428981442345534 0.9423899224487714 0
vt 0.41202493394439732 0.86612831148012726 0
vt 0.36000238346267671 0.89298273059316968 0
vt 0.98782158723644342 0.55733212359948914 0
vt 0.29184231982704106 0.56936907982174734 0
vt 0.078765363609332367 0.64597237188385426 0
vt 0.93108856477870028 0.85471289326235911 0
vt 0.67488246043773514 0.61997836503219073 0
vt 0.97376042706762511 0.33723669249631638 0
vt 0.91888827410017182 0.69631110546913122 0
vt 0.44714370102354395 0.54628418967532955 0
vt 0.66022065724125256 0.62288748173743647 0
vt 0.73385951788767889 0.55072764942132013 0
vt 0.51768301192953614 0.87326615186834 0
vt 0.15840348819483721 0.87180977389138825 0
vt 0.268521406776834 0.50450046900597634 0
vt 0.47046461407375101 0.48141557885955855 0
vt 0.98782158724081803 0.69631110546540886 0
vt 0.68354157017347972 0.55801887061690492 0
vt 0.58393916927888856 0.6857295700077346 0
vt 0.62301032034049031 0.62720045823728598 0
vt 0.33938366989823943 0.80799285684997013 0
vt 0.68139690156469079 0.83427866069569756 0
vt 0.59604910630904351 0.77967386519720394 0
vt 0.55726668338517782 0.95070231536348071 0
vt 0.5075463187204553 0.60149031249204865 0
vt 0.58541366209644574 0.71011009312364171 0
vt 0.20798257361113981 0.89580423226696404 0
vt 0.62631882090743662 0.83377136638949623 0
vt 0.98616664543595434 0.85420559895615766 0
vt 0.90202244266753939 0.75723006438796692 0
vt 0.032333817804838509 0.89664928141028977 0
vt 0.70564895930345539 0.75347806067873979 0
vt 0.42996795477848287 0.58122993597867767 0
vt 0.29698334363020973 0.30570204654199029 0
vt 0.071914081956541059 0.64841128134767667 0
vt 0.080910545306847229 0.79157135131094003 0
vt 0.56725415436438797 0.66413478660006786 0
vt 0.53661249936483335 0.96853848859584435 0
vt 0.62030430760230526 0.76716748269287838 0
vt 0.080787714398375635 0.83182635818788808 0
vt 0.71148333248644446 0.38341831563336043 0
vt 0.62843779739035777 0.78688279436608 0
vt 0.46810402262149781 0.89726056373104213 0
vt 0.71395372975384241 0.67850765394948498 0
vt 0.86328096920667263 0.80661188675418483 0
vt 0.59354718921838123 0.84394012288245079 0
vt 0.76128054290892833 0.96131742849980539 0
vt 0.73063879516796082 0.65691280518207429 0
vt 0.66707193889404381 0.62532639120125888 0
vt 0.14498461114827316 0.23203528312917471 0
vt 0.8782206384861202 0.78931046057332133 0
vt 0.012000000000000011 0.50756317256586214 0
vt 0.91888827409579721 0.7085113961520344 0
vt 0.91173466548686921 0.87143454199202386 0
vt 0.5736437062382147 0.60965595324688937 0
vt 0.66937441949051424 0.85995854255405335 0
vt 0.59560813591300077 0.61991233803487056 0
vt 0.21384299955374461 0.61053541499391661 0
vt 0.62608129770612275 0.85955979310750708 0
vt 0.98640416863726843 0.87999402567416851 0
vt 0.71886901627770183 0.2131064517407126 0
vt 0.94311104685287683 0.88039277512071479 0
vt 0.7022847278019102 0.61269022277122231 0
vt 0.048600872048709318 0.58356409558304423 0
vt 0.012000000000078207 0.79157371680007205 0
vt 0.9471311837928893 0.78931282606245334 0
vt 0.96044916410675762 0.71779281815700757 0
vt 0.89139966606732268 0.82980438371188692 0
vt 0.34018917973862495 0.62456197920864664 0
vt 0.9781221178882914 0.77209357530111722 0
vt 0.64641511551096142 0.81706023982782239 0
vt 0.94713118379296735 0.84225040531655759 0
vt 0.20720465092644963 0.3490340496259221 0
vt 0.012000000000000011 0.8445112960541763 0
vt 0.66408806929249498 0.76275948268371285 0
vt 0.067731517725644785 0.83206527444950562 0
vt 0.69911431537899771 0.82207837001279471 0
vt 0.087516284481500978 0.9379239635222254 0
vt 0.85655242694014067 0.91270905347022246 0
vt 0.61332558956296312 0.7151014599785589 0
vt 0.2086090786187251 0.86745644700158653 0
vt 0.12878005838937623 0.81046498779738452 0
vt 0.12412819514673999 0.8195753307328274 0
vt 0.012000000000000011 0.73738520176922961 0
vt 0.29318210889434954 0.8825334524685885 0
vt 0.051604879051991175 0.75782952853016838 0
vt 0.16963813264614708 0.8485959389235499 0
vt 0.78061831302289542 0.81118115791703349 0
vt 0.5064483892564049 0.85005236190014954 0
vt 0.26049748811511059 0.86566141338498448 0
vt 0.16478494153070097 0.81625390036316814 0
vt 0.11276232953466472 0.78939944949598828 0
vt 0.27166214230921193 0.95667164263754989 0
vt 0.36737457571799947 0.90726418803781306 0
vt 0.46747751882838245 0.86891283341739289 0
vt 0.8152888236199074 0.78525060467481989 0
vt 0.60052589979031656 0.79187415588010701 0
vt 0.81994066763143258 0.7943609099470923 0
vt 0.23897756017801253 0.97354366177075469 0
vt 0.52015933658763347 0.82839558270243208 0
vt 0.48055450436656444 0.84883988528890808 0
vt 0.41939712619972358 0.88040976892476885 0
#end 196 textures vertices 

#begin 196 normals 
vn 0 -1 0
vn 0 -1 -0
vn 0 -1 0
vn 0 -1 0
vn 0.98014900000000005 -0.19826199999999999 -6.3999999999999997e-005
vn 0.87245099999999998 -0.488701 0
vn 0.87245099999999998 -0.488701 0
vn 0.87245700000000004 -0.48869099999999999 -8.3999999999999995e-005
vn 0 0 1
vn 0 0 1
vn 0 0 1
vn 0 0 1
vn -0.87245099999999998 -0.488701 0
vn -0.98014900000000005 -0.19826199999999999 -6.3999999999999997e-005
vn -0.87245700000000004 -0.48869099999999999 -8.3999999999999995e-005
vn -0.87245099999999998 -0.488701 0
vn 0 0 1
vn 0 0 1
vn 0 0 1
vn 0 0 1
vn 0 -1 -0
vn 0 -1 0
vn 0 -1 0
vn -0 -9.9999999999999995e-007 -1
vn -0 -9.9999999999999995e-007 -1
vn -0 -9.9999999999999995e-007 -1
vn -0 -9.9999999999999995e-007 -1
vn -0 -9.9999999999999995e-007 -1
vn 0 -0 -1
vn 0 -0 -1
vn 0 -0 -1
vn 0 -0 -1
vn 0 -0 -1
vn 1 0 0
vn 1 3.9999999999999998e-006 -4.8000000000000001e-005
vn 1 0 0
vn -1 -0 0
vn -1 -0 0
vn -1 3.9999999999999998e-006 -4.8000000000000001e-005
vn 0 0 1
vn 0 0 1
vn 0 0 1
vn 0 0 1
vn 0 0 1
vn 0 0 1
vn 0 0 1
vn 0 0 1
vn 3.6000000000000001e-005 1 1.1e-005
vn 3.6000000000000001e-005 1 1.5999999999999999e-005
vn -0 1 1.5999999999999999e-005
vn -0 1 1.1e-005
vn -3.6000000000000001e-005 1 1.5999999999999999e-005
vn -3.6000000000000001e-005 1 1.1e-005
vn 0.88609899999999997 -0.46349600000000002 -0
vn 0.88609899999999997 -0.46349600000000002 -0
vn 0.88609899999999997 -0.46349600000000002 -0
vn 0.88609899999999997 -0.46349600000000002 -0
vn 0 -1 -0
vn 0 -1 -0
vn 0 -1 -0
vn 0 -1 -0
vn 1 0.00027500000000000002 -3.6000000000000001e-005
vn 0.99997599999999998 -0.0069430000000000004 -7.4999999999999993e-005
vn 1 0.00027799999999999998 0
vn 1 0.00027799999999999998 0
vn 0 -1 0
vn 0 -1 0
vn -0.88609899999999997 -0.46349499999999999 -9.9999999999999995e-007
vn -0.88609899999999997 -0.46349499999999999 -9.9999999999999995e-007
vn -0.88609899999999997 -0.46349499999999999 -9.9999999999999995e-007
vn -0.8861 -0.46349499999999999 -9.9999999999999995e-007
vn -0.99997599999999998 -0.0069439999999999997 -7.6000000000000004e-005
vn -1 0.00027500000000000002 -3.6000000000000001e-005
vn -1 0.00027799999999999998 -0
vn -1 0.00027799999999999998 -0
vn 0.87263000000000002 -0.488375 -0.0026840000000000002
vn 0 -1 -0
vn 0 -1 0
vn 0 -1 -0
vn -0.87263000000000002 -0.488375 -0.0026840000000000002
vn 0 1 0.00017000000000000001
vn -5.3999999999999998e-005 1 0.00017000000000000001
vn 5.3999999999999998e-005 1 0.00017000000000000001
vn -0.95090600000000003 0.30947999999999998 0
vn -0.95090600000000003 0.30947999999999998 0
vn -0.60921700000000001 0.79300400000000004 0
vn -0.60921700000000001 0.79300400000000004 0
vn 0 1 0
vn 0 1 0
vn 0.60921700000000001 0.79300400000000004 0
vn 0.60921700000000001 0.79300400000000004 0
vn 0.95090600000000003 0.30947999999999998 0
vn 0.95090600000000003 0.30947999999999998 0
vn 0 0 1
vn 0 0 1
vn 0 0 1
vn 0 0 1
vn -0 0 1
vn 0 0 1
vn -0 -0 -1
vn -1.9999999999999999e-006 -0 -1
vn -9.9999999999999995e-007 0 -1
vn 0 0 -1
vn 0 0 -1
vn 9.9999999999999995e-007 -0 -1
vn 3.0000000000000001e-006 -0 -1
vn -0 0 -1
vn -0 0 -1
vn 3.9999999999999998e-006 -9.9999999999999995e-007 -1
vn 1.9999999999999999e-006 -0 -1
vn -9.9999999999999995e-007 -0 -1
vn -0 -0 -1
vn 3.0000000000000001e-006 -0 -1
vn 5.0000000000000004e-006 -0 -1
vn 3.9999999999999998e-006 -0 -1
vn 0 0 -1
vn -9.9999999999999995e-007 9.9999999999999995e-007 -1
vn -5.0000000000000004e-006 -0 -1
vn -6.0000000000000002e-006 -0 -1
vn -3.0000000000000001e-006 -0 -1
vn -0.98019299999999998 0.198046 -0
vn -0.87244900000000003 0.488705 -0
vn -0.87244900000000003 0.488705 -0
vn -0.98019299999999998 0.198046 -0
vn 0 1 -9.9999999999999995e-007
vn 0 1 -9.9999999999999995e-007
vn 0 1 -9.9999999999999995e-007
vn 0 1 -9.9999999999999995e-007
vn 1 0 0
vn 1 0 0
vn 1 0 0
vn 1 0 0
vn -3.6000000000000001e-005 -1 9.9999999999999995e-007
vn -3.6000000000000001e-005 -1 9.9999999999999995e-007
vn -3.6000000000000001e-005 -1 9.9999999999999995e-007
vn -3.6000000000000001e-005 -1 9.9999999999999995e-007
vn -1 -0.00027799999999999998 0
vn -1 -0.00027799999999999998 0
vn -1 0 0
vn -1 0 0
vn -1 0 0
vn -1 0 0
vn 0 1 -0
vn 0 1 -0
vn 0 1 -0
vn 0 1 -0
vn 0.87245099999999998 0.48870200000000003 -9.9999999999999995e-007
vn 0.98019299999999998 0.198046 -9.9999999999999995e-007
vn 0.98019299999999998 0.198045 -9.9999999999999995e-007
vn 0.87245099999999998 0.48870200000000003 -9.9999999999999995e-007
vn 1 -0.00027700000000000001 -9.9999999999999995e-007
vn 1 -0.00027700000000000001 -9.9999999999999995e-007
vn 3.6000000000000001e-005 -1 0
vn 3.6000000000000001e-005 -1 0
vn 3.6000000000000001e-005 -1 0
vn 3.6000000000000001e-005 -1 0
vn 0.66225699999999998 -0.35653800000000002 0.65901100000000001
vn 0.66225800000000001 -0.35653800000000002 0.65901100000000001
vn 0.66225800000000001 -0.35653800000000002 0.65901100000000001
vn 0.66225699999999998 -0.35653800000000002 0.65901100000000001
vn 0.66225699999999998 -0.35654000000000002 -0.65901100000000001
vn 0.66225699999999998 -0.35654000000000002 -0.65901100000000001
vn 0.66225699999999998 -0.35654000000000002 -0.65901100000000001
vn 0.66225699999999998 -0.35654000000000002 -0.65901100000000001
vn 0 1 -0
vn 0 1 -0
vn 0 1 -0
vn 0 1 -0
vn 0 -0.76833899999999999 0.64004300000000003
vn 0 -0.76833899999999999 0.64004300000000003
vn 0 -0.76833899999999999 0.64004300000000003
vn 0 -0.76833899999999999 0.64004300000000003
vn 0 -0.76833899999999999 -0.64004300000000003
vn 0 -0.76834000000000002 -0.64004300000000003
vn 0 -0.76833899999999999 -0.64004300000000003
vn 0 -0.76833899999999999 -0.64004300000000003
vn 0 -0.76833899999999999 0.64004300000000003
vn 0 -0.76833899999999999 0.64004300000000003
vn 0 -0.76833899999999999 0.64004300000000003
vn 0 -0.76833899999999999 0.64004300000000003
vn 9.9999999999999995e-007 -0.76834000000000002 -0.640042
vn 9.9999999999999995e-007 -0.76834000000000002 -0.640042
vn 9.9999999999999995e-007 -0.76834000000000002 -0.640042
vn 9.9999999999999995e-007 -0.76834000000000002 -0.640042
vn -0.66225699999999998 -0.35653800000000002 0.65901100000000001
vn -0.66225699999999998 -0.35653800000000002 0.65901100000000001
vn -0.66225699999999998 -0.35653800000000002 0.65901100000000001
vn -0.66225699999999998 -0.35653800000000002 0.65901100000000001
vn 0 1 0
vn 0 1 0
vn 0 1 0
vn 0 1 0
vn -0.66225800000000001 -0.35653899999999999 -0.65900999999999998
vn -0.66225800000000001 -0.35653899999999999 -0.65900999999999998
vn -0.66225800000000001 -0.35653899999999999 -0.65900999999999998
vn -0.66225800000000001 -0.35653899999999999 -0.65900999999999998
#end 196 normals 

#begin 70 faces
usemtl initialShadingGroup
g InfusorV2
s 1
f 12/12/1 13/13/2 8/8/3 9/9/4 
s 2
f 4/4/5 5/5/6 9/77/7 8/79/8 
s off
f 5/73/9 11/11/10 12/70/11 9/78/12 
s 3
f 6/6/13 3/3/14 7/7/15 10/10/16 
s off
f 12/71/17 11/80/18 6/83/19 10/82/20 
s 1
f 7/84/21 13/76/2 12/72/22 10/81/23 
s off
f 50/50/24 51/51/25 52/52/26 53/53/27 54/54/28 
f 55/55/29 56/56/30 57/57/31 58/58/32 59/59/33 
s 2
f 5/5/34 4/4/5 2/2/35 15/15/36 
s 3
f 3/3/14 6/6/37 16/16/38 1/1/39 
s off
f 11/11/40 5/73/41 15/97/42 17/17/43 
f 6/83/44 11/80/45 17/111/46 16/103/47 
s 7
f 15/98/48 2/99/49 14/14/50 17/109/51 
f 17/110/51 14/112/50 1/105/52 16/104/53 
s off
f 60/60/54 61/61/55 62/62/56 63/63/57 
s 8
f 61/115/58 64/64/59 65/65/60 62/119/61 
s 2
f 33/33/62 26/26/63 18/18/64 22/22/65 
s 8
f 64/124/59 66/66/66 67/67/67 65/106/60 
s off
f 66/102/68 68/68/69 69/69/70 67/135/71 
s 3
f 30/30/72 31/31/73 25/25/74 24/24/75 
s 2
f 4/4/5 8/79/8 27/27/76 26/26/63 
s 1
f 8/8/3 13/13/2 28/28/77 27/149/78 
f 13/76/2 7/84/21 29/29/79 28/152/77 
s 3
f 7/7/15 3/3/14 30/30/72 29/155/80 
f 3/3/14 1/1/39 31/31/73 30/30/72 
s 7
f 1/105/52 14/112/50 32/32/81 31/143/82 
f 14/14/50 2/99/49 33/129/83 32/158/81 
s 2
f 2/2/35 4/4/5 26/26/63 33/33/62 
s 9
f 25/146/84 31/144/85 34/34/86 37/37/87 
f 37/37/87 34/34/86 35/35/88 38/38/89 
f 38/163/89 35/167/88 36/36/90 39/39/91 
f 39/39/91 36/36/90 33/128/92 22/127/93 
s 10
f 34/162/94 31/145/95 32/160/96 
f 35/166/97 34/162/94 32/160/96 
f 36/170/98 35/168/97 32/159/96 
f 33/130/99 36/170/98 32/159/96 
s 11
f 21/21/100 25/147/101 37/161/102 
f 21/21/100 37/161/102 38/164/103 
f 21/171/100 38/165/103 39/169/104 
f 21/171/100 39/169/104 22/126/105 
f 18/134/106 19/19/107 41/41/108 40/40/109 
f 19/176/107 20/20/110 42/42/111 41/177/108 
f 20/20/110 21/172/100 43/43/112 42/42/111 
f 21/172/100 22/125/105 44/44/113 43/43/112 
f 22/125/105 18/134/106 40/40/109 44/44/113 
f 21/173/100 20/182/110 46/46/114 45/45/115 
f 20/182/110 23/23/116 47/47/117 46/46/114 
f 23/190/116 24/139/118 48/48/119 47/192/117 
f 24/139/118 25/148/101 49/49/120 48/48/119 
f 25/148/101 21/173/100 45/45/115 49/49/120 
s 13
f 40/180/121 41/178/122 51/85/123 50/88/124 
s off
f 41/179/125 42/184/126 52/87/127 51/86/128 
f 42/184/129 43/185/130 53/89/131 52/87/132 
f 43/185/133 44/186/134 54/90/135 53/89/136 
s 13
f 44/186/137 40/180/121 50/88/124 54/90/138 
s off
f 45/188/139 46/187/140 56/94/141 55/96/142 
f 46/187/143 47/193/144 57/91/145 56/94/146 
s 14
f 47/194/147 48/195/148 58/93/149 57/92/150 
f 48/195/148 49/196/151 59/95/152 58/93/149 
s off
f 49/196/153 45/188/154 55/96/155 59/95/156 
f 26/131/157 27/151/158 61/114/159 60/113/160 
f 19/174/161 18/133/162 63/117/163 62/120/164 
f 18/132/165 26/131/166 60/113/167 63/118/168 
f 27/150/169 28/153/170 64/122/171 61/116/172 
f 20/181/173 19/175/174 62/121/175 65/108/176 
f 28/154/177 29/156/178 66/100/179 64/123/180 
f 23/189/181 20/183/182 65/107/183 67/137/184 
f 29/157/185 30/142/186 68/138/187 66/101/188 
f 30/142/189 24/141/190 69/74/191 68/138/192 
f 24/140/193 23/191/194 67/136/195 69/75/196 
#end 70 faces
#begin 1 properties
#U3D SYM 0 0 0 1 0 0 0.0001 1
#end 1 properties
