#File written by LIBUNFOLD3D. Compilation :Dec 22 2011,11:53:02
mtllib p_trigger.mtl
#begin vertices
v -0.14382900000000001 -0.44515700000000002 0.44729200000000002
v 0.14382900000000001 -0.44515700000000002 0.44729200000000002
v 0.17272899999999999 -0.23256099999999999 0.44729200000000002
v -0.17272899999999999 -0.23256099999999999 0.44729200000000002
v 0.088890999999999998 -0.23256099999999999 0.20977799999999999
v -0.088890999999999998 -0.23256099999999999 0.20977799999999999
v 0.074018 -0.44515700000000002 0.30171300000000001
v -0.074018 -0.44515700000000002 0.30171300000000001
#end vertices

#begin 20 textures vertices 
vt 0.050756883257195552 0.41972965218433766 0
vt 0.43652600173464601 0.41972965218433766 0
vt 0.47528288499184135 0.70483547754581566 0
vt 0.012000000000000066 0.70483547754581544 0
vt 0.31986889868282758 0.40820245017826984 0
vt 0.55828676093994578 0.40820245017827028 0
vt 0.33981461233972238 0.097580432527514097 0
vt 0.53834104728305077 0.097580432527514249 0
vt 0.93050407235972266 0.54563598571060545 0
vt 0.70809751927090203 0.45973835951288317 0
vt 0.044911135870537008 0.93036530516440186 0
vt 0.23488741681769859 0.98799999999999999 0
vt 0.92062811084019147 0.88327508998158244 0
vt 0.8661556596227733 0.26922604724357874 0
vt 0.38115478008524067 0.82835625575644478 0
vt 0.73722859390612183 0.012000000000000066 0
vt 0.012000000000000066 0.26922604724357885 0
vt 0.48845768291746661 0.71636267955188337 0
vt 0.14092706571665134 0.012000000000000365 0
vt 0.012000000000000066 0.71636267955188337 0
#end 20 textures vertices 

#begin 24 normals 
vn 0 -0.39691500000000002 -0.91785600000000001
vn 0 -0.39691500000000002 -0.91785600000000001
vn 0 -0.39691500000000002 -0.91785600000000001
vn 0 -0.39691500000000002 -0.91785600000000001
vn 0 -9.9999999999999995e-007 1
vn 0 -9.9999999999999995e-007 1
vn 0 -9.9999999999999995e-007 1
vn 0 -9.9999999999999995e-007 1
vn 0 1 -0
vn 0 1 -0
vn 0 1 -0
vn 0 1 -0
vn 0.91407700000000003 -0.17337 -0.36661500000000002
vn 0.91407700000000003 -0.17337 -0.36661500000000002
vn 0.91407700000000003 -0.17337 -0.36661500000000002
vn 0.91407700000000003 -0.17337 -0.36661500000000002
vn 0 -1 0
vn 0 -1 0
vn 0 -1 0
vn 0 -1 0
vn -0.91407700000000003 -0.17337 -0.36661500000000002
vn -0.91407700000000003 -0.17337 -0.36661500000000002
vn -0.91407700000000003 -0.17337 -0.36661500000000002
vn -0.91407700000000003 -0.17337 -0.36661500000000002
#end 24 normals 

#begin 6 faces
usemtl initialShadingGroup
g Trigger
s off
f 6/6/1 5/5/2 7/7/3 8/8/4 
f 4/4/5 1/1/6 2/2/7 3/3/8 
f 4/13/9 3/18/10 5/10/11 6/9/12 
f 3/17/13 2/19/14 7/7/15 5/5/16 
f 2/20/17 1/15/18 8/12/19 7/11/20 
f 1/16/21 4/14/22 6/6/23 8/8/24 
#end 6 faces
#begin 1 properties
#U3D SYM 0 0 0 1 0 0 0.0001 1
#end 1 properties
