# This file uses centimeters as units for non-parametric coordinates.

mtllib cratept11.mtl
g default
v 1.339993 1.339994 -1.488865
v 1.339993 -1.339993 -1.488865
v 1.239466 1.239466 -1.377169
v 1.239466 -1.239465 -1.377170
v -0.367809 1.239466 -1.377170
v -1.239465 0.357222 -1.377169
v 1.339993 -1.208649 -1.488865
vt 0.407006 0.542993
vt 0.407006 0.057007
vt 0.387299 0.562701
vt 0.387299 0.037299
vt 0.722108 0.542993
vt 0.892994 0.370032
vt 0.387299 0.063048
vn -0.743288 0.000000 -0.668971
vn -0.743288 0.000000 -0.668971
vn -0.743288 0.000000 -0.668971
vn -0.743288 0.000000 -0.668971
vn -0.000000 -0.000000 -1.000000
vn -0.000000 -0.000000 -1.000000
vn -0.000000 -0.000000 -1.000000
vn -0.000000 -0.000000 -1.000000
vn -0.743286 0.000000 -0.668973
s 1
g CrateBroken11 CrateBrokenPieces
usemtl initialShadingGroup
f 1/3/1 7/7/2 4/2/3 3/1/4
s off
f 6/6/5 5/5/6 3/1/7 4/2/8
s 1
f 4/2/3 7/7/2 2/4/9
