# This file uses centimeters as units for non-parametric coordinates.

mtllib cratept5.mtl
g default
v -1.339993 -1.488864 1.339993
v -1.339993 -1.339993 1.488865
v -1.488865 -1.339993 1.339993
v 1.339993 -1.339993 1.488860
v 1.339993 -1.488864 1.339992
v 1.239466 -1.239465 1.377169
v -1.239466 -1.239465 1.377169
v 1.239466 -1.377168 1.239466
v -1.239466 -1.377168 1.239466
v 0.353257 -0.208319 1.377170
v 0.000000 -1.377168 -0.000001
vt 0.912701 0.037299
vt 0.912701 0.008113
vt 0.941887 0.037299
vt 0.691878 0.941878
vt 0.408122 0.941878
vt 0.703385 0.953385
vt 0.396615 0.953385
vt 0.396615 0.970426
vt 0.703385 0.970426
vt 0.407007 0.057007
vt 0.892993 0.057007
vt 0.387299 0.037299
vt 0.912701 0.037299
vt 0.719255 0.259160
vt 0.550000 0.800000
vn 0.000001 -0.707104 0.707110
vn 0.000001 -0.707104 0.707110
vn 0.000001 -0.707103 0.707110
vn 0.000001 -0.707104 0.707110
vn 0.000000 -0.000001 1.000000
vn 0.000000 -0.000001 1.000000
vn 0.000000 -0.000001 1.000000
vn -0.577351 -0.577351 0.577350
vn -0.577351 -0.577351 0.577350
vn -0.577351 -0.577351 0.577350
vn 0.000001 0.743284 0.668976
vn 0.000001 0.743284 0.668976
vn 0.000001 0.743284 0.668976
vn 0.000001 0.743284 0.668976
vn -0.000000 -0.668966 -0.743293
vn -0.000000 -0.668966 -0.743293
vn -0.000000 -0.668966 -0.743293
vn -0.000000 -0.668966 -0.743293
vn 0.000000 -1.000000 0.000000
vn 0.000000 -1.000000 0.000000
vn 0.000000 -1.000000 0.000000
s off
g CrateBroken5 CrateBrokenPieces
usemtl initialShadingGroup
f 2/8/1 1/7/2 5/6/3 4/9/4
f 7/10/5 6/11/6 10/14/7
f 1/2/8 2/3/9 3/1/10
f 2/12/11 4/13/12 6/11/13 7/10/14
f 5/6/15 1/7/16 9/5/17 8/4/18
f 9/5/19 11/15/20 8/4/21
