# This file uses centimeters as units for non-parametric coordinates.

mtllib cratept13.mtl
g default
v -1.339993 -1.488864 -1.339993
v 1.339993 -1.488864 -1.339993
v 1.239466 -1.377168 -1.239466
v -1.239466 -1.377168 -1.239467
v 0.000000 -1.377168 -0.000001
vt 0.408122 0.658122
vt 0.691878 0.658122
vt 0.396615 0.646615
vt 0.703385 0.646615
vt 0.550000 0.800000
vn 0.000000 -1.000000 -0.000000
vn 0.000000 -1.000000 -0.000000
vn 0.000000 -1.000000 -0.000000
vn -0.000000 -0.668966 0.743293
vn -0.000000 -0.668966 0.743293
vn -0.000000 -0.668966 0.743293
vn -0.000000 -0.668966 0.743293
s off
g CrateBroken13 CrateBrokenPieces
usemtl initialShadingGroup
f 4/1/1 3/2/2 5/5/3
f 1/3/4 2/4/5 3/2/6 4/1/7
