# This file uses centimeters as units for non-parametric coordinates.

mtllib cratept8.mtl
g default
v 1.339993 1.339994 -1.488865
v 1.339993 1.488865 -1.339993
v 1.488865 1.339994 -1.339993
v 1.239466 1.377169 -1.239467
v 1.239466 1.239466 -1.377170
v -1.239466 1.377169 0.000000
v -0.367809 1.377169 -1.239465
v -0.367809 1.488865 -1.339993
v -0.367809 1.339994 -1.488865
v -0.367809 1.239466 -1.377169
v -1.239466 1.377169 0.338427
v 0.000000 1.377169 1.239464
vt 0.912701 0.562701
vt 0.941887 0.562701
vt 0.912701 0.591887
vt 0.341878 0.941878
vt 0.353385 0.953385
vt 0.353385 0.970426
vt 0.407006 0.542993
vt 0.387299 0.562701
vt 0.058122 0.800000
vt 0.157898 0.941878
vt 0.157898 0.953385
vt 0.157898 0.970426
vt 0.722108 0.562701
vt 0.722108 0.542993
vt 0.058122 0.761261
vt 0.200000 0.658122
vn 0.577351 0.577351 -0.577350
vn 0.577351 0.577351 -0.577350
vn 0.577351 0.577351 -0.577350
vn 0.000000 1.000000 0.000000
vn 0.000000 1.000000 0.000000
vn 0.000000 1.000000 0.000000
vn 0.000000 1.000000 0.000000
vn 0.000000 1.000000 0.000000
vn 0.000000 0.668967 0.743292
vn 0.000000 0.668967 0.743292
vn 0.000000 0.668967 0.743292
vn 0.000000 0.668967 0.743292
vn 0.000000 0.707107 -0.707107
vn 0.000000 0.707107 -0.707107
vn 0.000000 0.707107 -0.707107
vn 0.000000 0.707107 -0.707107
vn -0.000000 -0.743288 -0.668972
vn -0.000000 -0.743288 -0.668972
vn -0.000000 -0.743288 -0.668972
vn -0.000000 -0.743288 -0.668972
s off
g CrateBroken8 CrateBrokenPieces
usemtl initialShadingGroup
f 1/2/1 2/3/2 3/1/3
f 11/15/4 12/16/5 4/4/6 7/10/7 6/9/8
f 2/5/9 8/11/10 7/10/11 4/4/12
f 9/12/13 8/11/14 2/5/15 1/6/16
f 10/14/17 9/13/18 1/8/19 5/7/20
