# This file uses centimeters as units for non-parametric coordinates.

mtllib cratept2.mtl
g default
v -1.488865 1.339994 -1.339993
v -1.339993 1.488865 -1.339993
v -1.339993 1.339994 -1.488865
v -1.239466 1.377169 -1.239467
v -1.239466 1.239466 -1.377170
v -1.377169 1.239466 -1.239466
v -1.239466 1.377169 0.000000
v -0.367809 1.377169 -1.239465
v -0.367809 1.488865 -1.339993
v -0.367809 1.339994 -1.488865
v -0.367809 1.239466 -1.377170
v -1.239465 0.357222 -1.377170
v -1.339993 0.267999 -1.488865
v -1.488865 0.000000 -1.339993
v -1.377169 0.000000 -1.239466
v -1.377169 1.239466 0.247893
v -1.488865 1.339994 0.247893
v -1.339993 1.488865 0.247893
vt 0.407007 0.542993
vt 0.387299 0.562701
vt 0.387299 0.591887
vt 0.358113 0.562701
vt 0.058122 0.941878
vt 0.046615 0.953385
vt 0.046615 0.970426
vt 0.892994 0.542993
vt 0.912701 0.562701
vt 0.058122 0.800000
vt 0.157898 0.941878
vt 0.157898 0.953385
vt 0.157898 0.970426
vt 0.722108 0.562701
vt 0.722108 0.542993
vt 0.892994 0.370032
vt 0.358113 0.352540
vt 0.912701 0.352540
vt 0.387299 0.300000
vt 0.407007 0.300000
vt 0.698599 0.542993
vt 0.698599 0.562701
vt 0.698599 0.591887
vt 0.046615 0.771624
vn -0.707107 0.707107 0.000000
vn -0.707107 0.707107 0.000000
vn -0.707107 0.707107 0.000000
vn -0.707107 0.707107 0.000000
vn -0.707107 0.000000 -0.707107
vn -0.707107 0.000000 -0.707107
vn -0.707107 0.000000 -0.707107
vn -0.707107 0.000000 -0.707107
vn 0.000000 0.707107 -0.707107
vn 0.000000 0.707107 -0.707107
vn 0.000000 0.707107 -0.707107
vn 0.000000 0.707107 -0.707107
vn 0.000000 1.000000 0.000000
vn 0.000000 1.000000 0.000000
vn 0.000000 1.000000 0.000000
vn 0.000000 -0.000000 -1.000000
vn 0.000000 -0.000000 -1.000000
vn 0.000000 -0.000000 -1.000000
vn -1.000000 0.000000 0.000000
vn -1.000000 0.000000 0.000000
vn -1.000000 0.000000 0.000000
vn -0.577351 0.577351 -0.577350
vn -0.577351 0.577351 -0.577350
vn -0.577351 0.577351 -0.577350
vn -0.000001 0.668967 0.743292
vn -0.000001 0.668967 0.743292
vn -0.000001 0.668967 0.743292
vn -0.000001 0.668967 0.743292
vn 0.743290 0.668969 0.000000
vn 0.743290 0.668969 0.000000
vn 0.743290 0.668969 0.000000
vn 0.743290 0.668969 0.000000
vn -0.000000 -0.743286 -0.668974
vn -0.000000 -0.743286 -0.668974
vn -0.000000 -0.743286 -0.668974
vn -0.000000 -0.743286 -0.668974
vn 0.743286 -0.000000 -0.668974
vn 0.743286 -0.000000 -0.668974
vn 0.743286 -0.000000 -0.668974
vn 0.743286 -0.000000 -0.668974
vn -0.668969 -0.743290 0.000000
vn -0.668969 -0.743290 0.000000
vn -0.668969 -0.743290 0.000000
vn -0.668969 -0.743290 0.000000
vn -0.668969 0.000000 0.743291
vn -0.668969 0.000000 0.743291
vn -0.668969 0.000000 0.743291
vn -0.668969 0.000000 0.743290
s off
g CrateBroken2 CrateBrokenPieces
usemtl initialShadingGroup
f 17/22/1 18/23/2 2/3/3 1/2/4
f 1/2/5 3/4/6 13/17/7 14/19/8
f 3/7/9 2/6/10 9/12/11 10/13/12
f 7/10/13 8/11/14 4/5/15
f 5/8/16 11/15/17 12/16/18
f 15/20/19 16/21/20 6/1/21
f 1/2/22 2/3/23 3/4/24
f 8/11/25 9/12/26 2/6/27 4/5/28
f 2/6/29 18/24/30 7/10/31 4/5/32
f 3/9/33 10/14/34 11/15/35 5/8/36
f 12/16/37 13/18/38 3/9/39 5/8/40
f 16/21/41 17/22/42 1/2/43 6/1/44
f 1/2/45 14/19/46 15/20/47 6/1/48
