#File written by LIBUNFOLD3D. Compilation :Dec 22 2011,11:53:02
mtllib Infusor1.mtl
#begin vertices
v -0.23313 0.041406999999999999 -0.94072
v 0.23313 0.041406999999999999 -0.94072
v -0.23313 -0.23256099999999999 -0.94072
v 0.23313 -0.23256099999999999 -0.94072
v 0.23313 -0.23256099999999999 -0.17494699999999999
v -0.23313 -0.23256099999999999 -0.17494699999999999
v -0.146422 -0.38735399999999998 -0.94072
v 0.146422 -0.38735399999999998 -0.94072
v 0.146422 -0.38735399999999998 -0.17494699999999999
v -0.146422 -0.38735399999999998 -0.17494699999999999
v 0 -0.23256099999999999 -0.17494699999999999
v 0 -0.38735399999999998 -0.17494699999999999
v 0 -0.38735399999999998 -0.94072
v 0 0.041423000000000001 -0.94072
v 0 -0.33837 -0.94072
v 0.179865 -0.218943 -0.94072
v 0.112968 -0.33837 -0.94072
v 0 -0.0075449999999999996 -0.94072
v 0.179865 -0.0075700000000000003 -0.94072
v -0.179865 -0.218943 -0.94072
v -0.112968 -0.33837 -0.94072
v -0.179865 -0.0075700000000000003 -0.94072
v 0 -0.30209200000000003 -0.86455099999999996
v 0 -0.20885699999999999 -0.86455099999999996
v 0.14041799999999999 -0.20885699999999999 -0.86455099999999996
v 0.088192999999999994 -0.30209200000000003 -0.86455099999999996
v 0 -0.043822 -0.86455099999999996
v 0.14041799999999999 -0.043841999999999999 -0.86455099999999996
v -0.14041799999999999 -0.20885699999999999 -0.86455099999999996
v -0.088192999999999994 -0.30209200000000003 -0.86455099999999996
v -0.14041799999999999 -0.043841999999999999 -0.86455099999999996
v 0.23313 0.041406999999999999 -0.17494699999999999
v -0.23313 0.041406999999999999 -0.17494699999999999
v 0 0.041406999999999999 -0.17494699999999999
#end vertices

#begin 90 textures vertices 
vt 0.83565457658861453 0.84642766534972269 0
vt 0.56364373039350402 0.84642766534972269 0
vt 0.49552186655910807 0.57212165396192916 0
vt 0.77707302518725807 0.23175588840403225 0
vt 0.34676377419803528 0.1116993054706842 0
vt 0.92583111754833092 0.45206507102858107 0
vt 0.46770569032506859 0.47242234838152114 0
vt 0.1828419003893183 0.47073562228121546 0
vt 0.18284189989096117 0.91747898747946133 0
vt 0.8980149421892798 0.35236576555789689 0
vt 0.33588408489823907 0.5610401181369582 0
vt 0.09742095019465917 0.91747898724297783 0
vt 0.09742095019465917 0.47073562090360566 0
vt 0.69964915349105927 0.8464369995699994 0
vt 0.79297174044163787 0.88700542760998802 0
vt 0.30382169067823678 0.83301315647001839 0
vt 0.32990891642586723 0.75753601227314038 0
vt 0.69964915349105927 0.81786961845971329 0
vt 0.59471793303277054 0.81785503374054336 0
vt 0.37387036598715451 0.83301315647001839 0
vt 0.85887600259787822 0.88700542760998813 0
vt 0.804580373949348 0.81785503374054336 0
vt 0.88940453269313446 0.65520262982389865 0
vt 0.88940453269313446 0.70959488145389205 0
vt 0.80748624890077747 0.70959488145389193 0
vt 0.83795372722304273 0.65520262982389865 0
vt 0.88940453269313446 0.80587444650731566 0
vt 0.80748624890077747 0.80586277873198886 0
vt 0.97132281648549135 0.70959488145389193 0
vt 0.94085533816322631 0.65520262982389865 0
vt 0.97132281648549135 0.80586277873198886 0
vt 0.30381153854149129 0.2656495816133953 0
vt 0.96878335320487485 0.60601534717129213 0
vt 0.33588408489823907 0.72086997167442834 0
vt 0.37457994955708646 0.012000000000000011 0
vt 0.42130503484371967 0.47073562082842008 0
vt 0.50581940866528008 0.8294799131228332 0
vt 0.27183219185201279 0.83069054662347819 0
vt 0.33588408489823907 0.47073562082842002 0
vt 0.47188950799579193 0.5610401181369582 0
vt 0.79297174044163787 0.8584287122794404 0
vt 0.30564507365526017 0.73286222668298273 0
vt 0.8048892014212975 0.1320565828236242 0
vt 0.70755079049615732 0.85842871227944073 0
vt 0.50539706768673187 0.89182256225483669 0
vt 0.57409976874346802 0.90764808085941651 0
vt 0.62555057421355975 0.90764808085941651 0
vt 0.012000000498357179 0.91747898747946133 0
vt 0.25046313495275851 0.47073562082842008 0
vt 0.1998786618006862 0.5610401181369582 0
vt 0.40585986481337866 0.8306905466234783 0
vt 0.8783926903871182 0.85842871227944073 0
vt 0.012000000000000011 0.47073562228121546 0
vt 0.37204698301013117 0.73286222668298273 0
vt 0.68456462502271587 0.72100931561187365 0
vt 0.60264634055305988 0.72100429856168735 0
vt 0.48369536366980775 0.73578874662681559 0
vt 0.67700137968365159 0.90764808085941651 0
vt 0.25035547489336546 0.9209907708511792 0
vt 0.24993313391481733 0.85864812171917582 0
vt 0.27205717891028947 0.76495695522315821 0
vt 0.76648290949237174 0.72100429856168735 0
vt 0.72706747828539731 0.88700542760998813 0
vt 0.55533272531797473 0.90356246717691446 0
vt 0.5596463120573193 0.8584292545785539 0
vt 0.55587388077941124 0.82370603478671411 0
vt 0.62555057421355975 0.85842925457855401 0
vt 0.28401084683542377 0.45874336576735603 0
vt 0.73412078995201013 0.38570616472597269 0
vt 0.30010440365421959 0.98799999999999988 0
vt 0.32563439225385105 0.95438123992704815 0
vt 0.57963340373824335 0.77022161972551784 0
vt 0.52753448276815185 0.70369401808664001 0
vt 0.14800542341771186 0.4587433659648385 0
vt 0.68456462502271587 0.77022789103740852 0
vt 0.34778314023952417 0.75753601227314038 0
vt 0.69145483636980032 0.8584292545785539 0
vt 0.20041981726212263 0.93273067577325708 0
vt 0.19987866180068611 0.85287424338305673 0
vt 0.37758765301117164 0.98799999999999999 0
vt 0.53847410179435606 0.72607193028386963 0
vt 0.012000000000000011 0.45874336576735603 0
vt 0.78949584630718839 0.77022161972551784 0
vt 0.35205766441154035 0.95438123992704826 0
vt 0.2282180598119454 0.73286222668298273 0
vt 0.47188950799579205 0.72086997167442834 0
vt 0.28401084651541536 0.012000000000000011 0
vt 0.19987866180068617 0.72086997167442834 0
vt 0.012000000320008367 0.012000000000000011 0
vt 0.14800542341771186 0.012000000097062497 0
#end 90 textures vertices 

#begin 118 normals 
vn 0 -1 0
vn 0 -1 0
vn 0 -1 0
vn 0 -1 0
vn 0 0 -1
vn 0 0 -1
vn 0 0 -1
vn 0 0 -1
vn 0.87245099999999998 -0.488701 0
vn 0.87245099999999998 -0.488701 0
vn 0.87245099999999998 -0.488701 0
vn 0.87245099999999998 -0.488701 0
vn 0 0 1
vn 0 0 1
vn 0 0 1
vn 0 0 1
vn -0.87245099999999998 -0.488701 0
vn -0.87245099999999998 -0.488701 0
vn -0.87245099999999998 -0.488701 0
vn -0.87245099999999998 -0.488701 0
vn 0 -0 -1
vn 0 -0 -1
vn 0 -0 -1
vn 0 -0 -1
vn 0 0 1
vn 0 0 1
vn 0 0 1
vn 0 0 1
vn 0 -1 0
vn 0 -1 0
vn 0 -1 0
vn 0 -1 0
vn 0 0 -1
vn 0 0 -1
vn 0 0 -1
vn 0 0 -1
vn 0 -0 -1
vn 0 -0 -1
vn 0 -0 -1
vn 0 -0 -1
vn -9.9999999999999995e-007 0 -1
vn -9.9999999999999995e-007 0 -1
vn -9.9999999999999995e-007 0 -1
vn -9.9999999999999995e-007 0 -1
vn 0 0 -1
vn 0 0 -1
vn 0 0 -1
vn 0 0 -1
vn 0 0 -1
vn 0 0 -1
vn 0 0 -1
vn 0 0 -1
vn 0 0 -1
vn 0 0 -1
vn 0 0 -1
vn 0 0 -1
vn 0 0 -1
vn 0 0 -1
vn 0 0 -1
vn 0 0 -1
vn 9.9999999999999995e-007 0 -1
vn 9.9999999999999995e-007 0 -1
vn 9.9999999999999995e-007 0 -1
vn 9.9999999999999995e-007 0 -1
vn 0 0 -1
vn 0 0 -1
vn 0 0 -1
vn 0 0 -1
vn 0 0 -1
vn 0 0 -1
vn 0 0 -1
vn 0 0 -1
vn -0.86473100000000003 0.17451900000000001 -0.47094000000000003
vn -0.77514899999999998 0.43419799999999997 -0.45893
vn -0.77514899999999998 0.43419799999999997 -0.45892899999999998
vn -0.86459600000000003 0.175149 -0.47095300000000001
vn 0 0.90283199999999997 -0.42999399999999999
vn 0 0.90283199999999997 -0.42999399999999999
vn 0 0.90283199999999997 -0.42999399999999999
vn 0 0.90283199999999997 -0.42999399999999999
vn 0 -0.90283100000000005 -0.42999500000000002
vn -0.00012899999999999999 -0.90283100000000005 -0.42999500000000002
vn -0.00012899999999999999 -0.90283100000000005 -0.42999500000000002
vn 0 -0.90283100000000005 -0.42999500000000002
vn -0.887984 0 -0.45987499999999998
vn -0.887984 0 -0.45987499999999998
vn 0 0.90283199999999997 -0.42999399999999999
vn 0 0.90283199999999997 -0.42999399999999999
vn 0.77514899999999998 0.43419799999999997 -0.45892899999999998
vn 0.86473100000000003 0.17451900000000001 -0.47094000000000003
vn 0.86459600000000003 0.175149 -0.47095300000000001
vn 0.77514899999999998 0.43419799999999997 -0.45892899999999998
vn 0.00012899999999999999 -0.90283100000000005 -0.42999500000000002
vn 0.00012899999999999999 -0.90283100000000005 -0.42999500000000002
vn 0.887984 0 -0.45987499999999998
vn 0.887984 0 -0.45987499999999998
vn 1 0 0
vn 1 0 0
vn 1 0 0
vn 1 0 0
vn -1 -0 0
vn -1 -0 0
vn -1 -0 0
vn -1 -0 0
vn 0 0 1
vn 0 0 1
vn 0 0 1
vn 0 0 1
vn 0 0 1
vn 0 0 1
vn 0 0 1
vn 0 0 1
vn 3.6000000000000001e-005 1 1.1e-005
vn 3.6000000000000001e-005 1 1.1e-005
vn -0 1 1.1e-005
vn -0 1 1.1e-005
vn -3.6000000000000001e-005 1 1.1e-005
vn -3.6000000000000001e-005 1 1.1e-005
#end 118 normals 

#begin 32 faces
usemtl initialShadingGroup
g Infusor
s off
f 12/12/1 13/13/2 8/8/3 9/9/4 
f 23/23/5 24/24/6 25/25/7 26/26/8 
f 4/4/9 5/5/10 9/35/11 8/43/12 
f 5/40/13 11/11/14 12/39/15 9/36/16 
f 6/6/17 3/3/18 7/7/19 10/10/20 
f 24/24/21 27/27/22 28/28/23 25/25/24 
f 12/39/25 11/11/26 6/50/27 10/49/28 
f 7/53/29 13/13/30 12/12/31 10/48/32 
f 29/29/33 24/24/34 23/23/35 30/30/36 
f 31/31/37 27/27/38 24/24/39 29/29/40 
f 4/38/41 8/42/42 17/17/43 16/16/44 
f 8/44/45 13/41/46 15/15/47 17/63/48 
f 14/14/49 2/2/50 19/19/51 18/18/52 
f 2/70/53 4/38/54 16/16/55 19/71/56 
f 13/41/57 7/52/58 21/21/59 15/15/60 
f 7/54/61 3/51/62 20/20/63 21/76/64 
f 1/1/65 14/14/66 18/18/67 22/22/68 
f 3/51/69 1/80/70 22/84/71 20/20/72 
s 1
f 16/66/73 17/64/74 26/45/75 25/37/76 
s 2
f 17/65/77 15/67/78 23/47/79 26/46/80 
s 3
f 18/75/81 19/72/82 28/56/83 27/55/84 
s 1
f 19/73/85 16/66/73 25/37/76 28/57/86 
s 2
f 15/67/78 21/77/87 30/58/88 23/47/79 
s 4
f 21/78/89 20/79/90 29/60/91 30/59/92 
s 3
f 22/83/93 18/75/81 27/55/84 31/62/94 
s 4
f 20/79/90 22/85/95 31/61/96 29/60/91 
s off
f 5/5/97 4/4/98 2/69/99 32/32/100 
f 3/3/101 6/6/102 33/33/103 1/81/104 
f 11/11/105 5/40/106 32/86/107 34/34/108 
f 6/50/109 11/11/110 34/34/111 33/88/112 
s 5
f 32/87/113 2/68/114 14/74/115 34/90/116 
f 34/90/116 14/74/115 1/82/117 33/89/118 
#end 32 faces
#begin 1 properties
#U3D SYM 0 0 0 1 0 0 0.0001 1
#end 1 properties
